<svg id="my-svg" width="100%" xmlns="http://www.w3.org/2000/svg" xmlns:xlink="http://www.w3.org/1999/xlink" class="classDiagram" style="max-width: 504.5px; background-color: white;" viewBox="0 0 504.5 958" role="graphics-document document" aria-roledescription="class"><style>#my-svg{font-family:"trebuchet ms",verdana,arial,sans-serif;font-size:16px;fill:#333;}@keyframes edge-animation-frame{from{stroke-dashoffset:0;}}@keyframes dash{to{stroke-dashoffset:0;}}#my-svg .edge-animation-slow{stroke-dasharray:9,5!important;stroke-dashoffset:900;animation:dash 50s linear infinite;stroke-linecap:round;}#my-svg .edge-animation-fast{stroke-dasharray:9,5!important;stroke-dashoffset:900;animation:dash 20s linear infinite;stroke-linecap:round;}#my-svg .error-icon{fill:#552222;}#my-svg .error-text{fill:#552222;stroke:#552222;}#my-svg .edge-thickness-normal{stroke-width:1px;}#my-svg .edge-thickness-thick{stroke-width:3.5px;}#my-svg .edge-pattern-solid{stroke-dasharray:0;}#my-svg .edge-thickness-invisible{stroke-width:0;fill:none;}#my-svg .edge-pattern-dashed{stroke-dasharray:3;}#my-svg .edge-pattern-dotted{stroke-dasharray:2;}#my-svg .marker{fill:#333333;stroke:#333333;}#my-svg .marker.cross{stroke:#333333;}#my-svg svg{font-family:"trebuchet ms",verdana,arial,sans-serif;font-size:16px;}#my-svg p{margin:0;}#my-svg g.classGroup text{fill:#9370DB;stroke:none;font-family:"trebuchet ms",verdana,arial,sans-serif;font-size:10px;}#my-svg g.classGroup text .title{font-weight:bolder;}#my-svg .cluster-label text{fill:#333;}#my-svg .cluster-label span{color:#333;}#my-svg .cluster-label span p{background-color:transparent;}#my-svg .cluster rect{fill:#ffffde;stroke:#aaaa33;stroke-width:1px;}#my-svg .cluster text{fill:#333;}#my-svg .cluster span{color:#333;}#my-svg .nodeLabel,#my-svg .edgeLabel{color:#131300;}#my-svg .noteLabel .nodeLabel,#my-svg .noteLabel .edgeLabel{color:black;}#my-svg .edgeLabel .label rect{fill:#ECECFF;}#my-svg .label text{fill:#131300;}#my-svg .labelBkg{background:#ECECFF;}#my-svg .edgeLabel .label span{background:#ECECFF;}#my-svg .classTitle{font-weight:bolder;}#my-svg .node rect,#my-svg .node circle,#my-svg .node ellipse,#my-svg .node polygon,#my-svg .node path{fill:#ECECFF;stroke:#9370DB;stroke-width:1;}#my-svg .divider{stroke:#9370DB;stroke-width:1;}#my-svg g.clickable{cursor:pointer;}#my-svg g.classGroup rect{fill:#ECECFF;stroke:#9370DB;}#my-svg g.classGroup line{stroke:#9370DB;stroke-width:1;}#my-svg .classLabel .box{stroke:none;stroke-width:0;fill:#ECECFF;opacity:0.5;}#my-svg .classLabel .label{fill:#9370DB;font-size:10px;}#my-svg .relation{stroke:#333333;stroke-width:1;fill:none;}#my-svg .dashed-line{stroke-dasharray:3;}#my-svg .dotted-line{stroke-dasharray:1 2;}#my-svg [id$="-compositionStart"],#my-svg .composition{fill:#333333!important;stroke:#333333!important;stroke-width:1;}#my-svg [id$="-compositionEnd"],#my-svg .composition{fill:#333333!important;stroke:#333333!important;stroke-width:1;}#my-svg [id$="-dependencyStart"],#my-svg .dependency{fill:#333333!important;stroke:#333333!important;stroke-width:1;}#my-svg [id$="-dependencyEnd"],#my-svg .dependency{fill:#333333!important;stroke:#333333!important;stroke-width:1;}#my-svg [id$="-extensionStart"],#my-svg .extension{fill:transparent!important;stroke:#333333!important;stroke-width:1;}#my-svg [id$="-extensionEnd"],#my-svg .extension{fill:transparent!important;stroke:#333333!important;stroke-width:1;}#my-svg [id$="-aggregationStart"],#my-svg .aggregation{fill:transparent!important;stroke:#333333!important;stroke-width:1;}#my-svg [id$="-aggregationEnd"],#my-svg .aggregation{fill:transparent!important;stroke:#333333!important;stroke-width:1;}#my-svg [id$="-lollipopStart"],#my-svg .lollipop{fill:#ECECFF!important;stroke:#333333!important;stroke-width:1;}#my-svg [id$="-lollipopEnd"],#my-svg .lollipop{fill:#ECECFF!important;stroke:#333333!important;stroke-width:1;}#my-svg .edgeTerminals{font-size:11px;line-height:initial;}#my-svg .classTitleText{text-anchor:middle;font-size:18px;fill:#333;}#my-svg .edgeLabel[data-look="neo"]{background-color:rgba(232,232,232, 0.8);text-align:center;}#my-svg .edgeLabel[data-look="neo"] p{background-color:rgba(232,232,232, 0.8);}#my-svg .edgeLabel[data-look="neo"] rect{opacity:0.5;background-color:rgba(232,232,232, 0.8);fill:rgba(232,232,232, 0.8);}#my-svg .label-icon{display:inline-block;height:1em;overflow:visible;vertical-align:-0.125em;}#my-svg .node .label-icon path{fill:currentColor;stroke:revert;stroke-width:revert;}#my-svg .node .neo-node{stroke:#9370DB;}#my-svg [data-look="neo"].node rect,#my-svg [data-look="neo"].cluster rect,#my-svg [data-look="neo"].node polygon{stroke:#9370DB;filter:drop-shadow(1px 2px 2px rgba(185, 185, 185, 1));}#my-svg [data-look="neo"].swimlane.cluster rect{filter:none;}#my-svg [data-look="neo"].node path{stroke:#9370DB;stroke-width:1px;}#my-svg [data-look="neo"].node .outer-path{filter:drop-shadow(1px 2px 2px rgba(185, 185, 185, 1));}#my-svg [data-look="neo"].node .neo-line path{stroke:#9370DB;filter:none;}#my-svg [data-look="neo"].node circle{stroke:#9370DB;filter:drop-shadow(1px 2px 2px rgba(185, 185, 185, 1));}#my-svg [data-look="neo"].node circle .state-start{fill:#000000;}#my-svg [data-look="neo"].icon-shape .icon{fill:#9370DB;filter:drop-shadow(1px 2px 2px rgba(185, 185, 185, 1));}#my-svg [data-look="neo"].icon-shape .icon-neo path{stroke:#9370DB;filter:drop-shadow(1px 2px 2px rgba(185, 185, 185, 1));}#my-svg :root{--mermaid-font-family:"trebuchet ms",verdana,arial,sans-serif;}</style><g><defs><marker id="my-svg_class-aggregationStart" class="marker aggregation class" refX="18" refY="7" markerWidth="190" markerHeight="240" orient="auto"><path d="M 18,7 L9,13 L1,7 L9,1 Z"/></marker></defs><defs><marker id="my-svg_class-aggregationEnd" class="marker aggregation class" refX="1" refY="7" markerWidth="20" markerHeight="28" orient="auto"><path d="M 18,7 L9,13 L1,7 L9,1 Z"/></marker></defs><defs><marker id="my-svg_class-aggregationStart-margin" class="marker aggregation class" refX="15" refY="7" markerWidth="190" markerHeight="240" orient="auto" markerUnits="userSpaceOnUse"><path d="M 18,7 L9,13 L1,7 L9,1 Z" style="stroke-width: 2;"/></marker></defs><defs><marker id="my-svg_class-aggregationEnd-margin" class="marker aggregation class" refX="1" refY="7" markerWidth="20" markerHeight="28" orient="auto" markerUnits="userSpaceOnUse"><path d="M 18,7 L9,13 L1,7 L9,1 Z" style="stroke-width: 2;"/></marker></defs><defs><marker id="my-svg_class-extensionStart" class="marker extension class" refX="18" refY="7" markerWidth="20" markerHeight="28" orient="auto" markerUnits="userSpaceOnUse"><path d="M 1,7 L18,13 V 1 Z"/></marker></defs><defs><marker id="my-svg_class-extensionEnd" class="marker extension class" refX="1" refY="7" markerWidth="20" markerHeight="28" orient="auto"><path d="M 1,1 V 13 L18,7 Z"/></marker></defs><marker id="my-svg_class-extensionStart-margin" class="marker extension class" refX="18" refY="7" markerWidth="20" markerHeight="28" orient="auto" markerUnits="userSpaceOnUse" viewBox="0 0 20 14"><polygon points="10,7 18,13 18,1" style="stroke-width: 2; stroke-dasharray: 0;"/></marker><defs><marker id="my-svg_class-extensionEnd-margin" class="marker extension class" refX="9" refY="7" markerWidth="20" markerHeight="28" orient="auto" markerUnits="userSpaceOnUse" viewBox="0 0 20 14"><polygon points="10,1 10,13 18,7" style="stroke-width: 2; stroke-dasharray: 0;"/></marker></defs><defs><marker id="my-svg_class-compositionStart" class="marker composition class" refX="18" refY="7" markerWidth="190" markerHeight="240" orient="auto"><path d="M 18,7 L9,13 L1,7 L9,1 Z"/></marker></defs><defs><marker id="my-svg_class-compositionEnd" class="marker composition class" refX="1" refY="7" markerWidth="20" markerHeight="28" orient="auto"><path d="M 18,7 L9,13 L1,7 L9,1 Z"/></marker></defs><defs><marker id="my-svg_class-compositionStart-margin" class="marker composition class" refX="15" refY="7" markerWidth="190" markerHeight="240" orient="auto" markerUnits="userSpaceOnUse"><path viewBox="0 0 15 15" d="M 18,7 L9,13 L1,7 L9,1 Z" style="stroke-width: 0;"/></marker></defs><defs><marker id="my-svg_class-compositionEnd-margin" class="marker composition class" refX="3.5" refY="7" markerWidth="20" markerHeight="28" orient="auto" markerUnits="userSpaceOnUse"><path d="M 18,7 L9,13 L1,7 L9,1 Z" style="stroke-width: 0;"/></marker></defs><defs><marker id="my-svg_class-dependencyStart" class="marker dependency class" refX="6" refY="7" markerWidth="190" markerHeight="240" orient="auto"><path d="M 5,7 L9,13 L1,7 L9,1 Z"/></marker></defs><defs><marker id="my-svg_class-dependencyEnd" class="marker dependency class" refX="13" refY="7" markerWidth="20" markerHeight="28" orient="auto"><path d="M 18,7 L9,13 L14,7 L9,1 Z"/></marker></defs><defs><marker id="my-svg_class-dependencyStart-margin" class="marker dependency class" refX="4" refY="7" markerWidth="190" markerHeight="240" orient="auto" markerUnits="userSpaceOnUse"><path d="M 5,7 L9,13 L1,7 L9,1 Z" style="stroke-width: 0;"/></marker></defs><defs><marker id="my-svg_class-dependencyEnd-margin" class="marker dependency class" refX="16" refY="7" markerWidth="20" markerHeight="28" orient="auto" markerUnits="userSpaceOnUse"><path d="M 18,7 L9,13 L14,7 L9,1 Z" style="stroke-width: 0;"/></marker></defs><defs><marker id="my-svg_class-lollipopStart" class="marker lollipop class" refX="13" refY="7" markerWidth="190" markerHeight="240" orient="auto"><circle fill="transparent" cx="7" cy="7" r="6"/></marker></defs><defs><marker id="my-svg_class-lollipopEnd" class="marker lollipop class" refX="1" refY="7" markerWidth="190" markerHeight="240" orient="auto"><circle fill="transparent" cx="7" cy="7" r="6"/></marker></defs><defs><marker id="my-svg_class-lollipopStart-margin" class="marker lollipop class" refX="13" refY="7" markerWidth="190" markerHeight="240" orient="auto" markerUnits="userSpaceOnUse"><circle fill="transparent" cx="7" cy="7" r="6" stroke-width="2"/></marker></defs><defs><marker id="my-svg_class-lollipopEnd-margin" class="marker lollipop class" refX="1" refY="7" markerWidth="190" markerHeight="240" orient="auto" markerUnits="userSpaceOnUse"><circle fill="transparent" cx="7" cy="7" r="6" stroke-width="2"/></marker></defs><g class="root"><g class="clusters"/><g class="edgePaths"><path d="M241.375,217.25L241.375,218.542C241.375,219.833,241.375,222.417,241.375,227.875C241.375,233.333,241.375,241.667,241.375,245.833L241.375,250" id="my-svg-id_Tenant_Site_1" class="edge-thickness-normal edge-pattern-solid relation" style=";;;" data-edge="true" data-et="edge" data-id="id_Tenant_Site_1" data-points="W3sieCI6MjQxLjM3NSwieSI6MjAwfSx7IngiOjI0MS4zNzUsInkiOjIyNX0seyJ4IjoyNDEuMzc1LCJ5IjoyNTB9XQ==" data-look="classic" marker-start="url(#my-svg_class-compositionStart)"/><path d="M152.698,427.83L145.623,434.358C138.549,440.887,124.399,453.943,117.325,466.638C110.25,479.333,110.25,491.667,110.25,497.833L110.25,504" id="my-svg-id_Site_APIKey_2" class="edge-thickness-normal edge-pattern-solid relation" style=";;;" data-edge="true" data-et="edge" data-id="id_Site_APIKey_2" data-points="W3sieCI6MTY1LjM3NSwieSI6NDE2LjEzMTU1Mzg2MDgxOTg1fSx7IngiOjExMC4yNSwieSI6NDY3fSx7IngiOjExMC4yNSwieSI6NTA0fV0=" data-look="classic" marker-start="url(#my-svg_class-compositionStart)"/><path d="M330.052,427.83L337.127,434.358C344.201,440.887,358.351,453.943,365.425,464.638C372.5,475.333,372.5,483.667,372.5,487.833L372.5,492" id="my-svg-id_Site_SecurityEvent_3" class="edge-thickness-normal edge-pattern-solid relation" style=";;;" data-edge="true" data-et="edge" data-id="id_Site_SecurityEvent_3" data-points="W3sieCI6MzE3LjM3NSwieSI6NDE2LjEzMTU1Mzg2MDgxOTg1fSx7IngiOjM3Mi41LCJ5Ijo0Njd9LHsieCI6MzcyLjUsInkiOjQ5Mn1d" data-look="classic" marker-start="url(#my-svg_class-compositionStart)"/><path d="M372.5,708L372.5,712.167C372.5,716.333,372.5,724.667,372.5,732C372.5,739.333,372.5,745.667,372.5,748.833L372.5,752" id="my-svg-id_SecurityEvent_AttackerProfile_4" class="edge-thickness-normal edge-pattern-solid relation" style=";;;" data-edge="true" data-et="edge" data-id="id_SecurityEvent_AttackerProfile_4" data-points="W3sieCI6MzcyLjUsInkiOjcwOH0seyJ4IjozNzIuNSwieSI6NzMzfSx7IngiOjM3Mi41LCJ5Ijo3NTh9XQ==" data-look="classic" marker-end="url(#my-svg_class-dependencyEnd)"/></g><g class="edgeLabels"><g class="edgeLabel"><g class="label" data-id="id_Tenant_Site_1" transform="translate(0, 0)"><foreignObject width="0" height="0"><div xmlns="http://www.w3.org/1999/xhtml" class="labelBkg" style="display: table-cell; white-space: nowrap; line-height: 1.5; max-width: 200px; text-align: center;"><span class="edgeLabel"></span></div></foreignObject></g></g><g class="edgeLabel"><g class="label" data-id="id_Site_APIKey_2" transform="translate(0, 0)"><foreignObject width="0" height="0"><div xmlns="http://www.w3.org/1999/xhtml" class="labelBkg" style="display: table-cell; white-space: nowrap; line-height: 1.5; max-width: 200px; text-align: center;"><span class="edgeLabel"></span></div></foreignObject></g></g><g class="edgeLabel"><g class="label" data-id="id_Site_SecurityEvent_3" transform="translate(0, 0)"><foreignObject width="0" height="0"><div xmlns="http://www.w3.org/1999/xhtml" class="labelBkg" style="display: table-cell; white-space: nowrap; line-height: 1.5; max-width: 200px; text-align: center;"><span class="edgeLabel"></span></div></foreignObject></g></g><g class="edgeLabel"><g class="label" data-id="id_SecurityEvent_AttackerProfile_4" transform="translate(0, 0)"><foreignObject width="0" height="0"><div xmlns="http://www.w3.org/1999/xhtml" class="labelBkg" style="display: table-cell; white-space: nowrap; line-height: 1.5; max-width: 200px; text-align: center;"><span class="edgeLabel"></span></div></foreignObject></g></g><g class="edgeTerminals" transform="translate(226.375, 217.5)"><g class="inner" transform="translate(-3, -8.25)"><foreignObject width="6" height="16.5" style="width: 9px; height: 12px;"><div xmlns="http://www.w3.org/1999/xhtml" style="display: table-cell; white-space: nowrap; line-height: 1.5;"><span class="edgeLabel"><p>1</p></span></div></foreignObject></g></g><g class="edgeTerminals" transform="translate(142.3416051352267, 416.9757532007713)"><g class="inner" transform="translate(-3, -8.25)"><foreignObject width="6" height="16.5" style="width: 9px; height: 12px;"><div xmlns="http://www.w3.org/1999/xhtml" style="display: table-cell; white-space: nowrap; line-height: 1.5;"><span class="edgeLabel"><p>1</p></span></div></foreignObject></g></g><g class="edgeTerminals" transform="translate(320.0634851352267, 439.0230806600485)"><g class="inner" transform="translate(-3, -8.25)"><foreignObject width="6" height="16.5" style="width: 9px; height: 12px;"><div xmlns="http://www.w3.org/1999/xhtml" style="display: table-cell; white-space: nowrap; line-height: 1.5;"><span class="edgeLabel"><p>1</p></span></div></foreignObject></g></g><g class="edgeTerminals" transform="translate(357.5, 725.5)"><g class="inner" transform="translate(-13, -8.25)"><foreignObject width="26" height="16.5" style="width: 36px; height: 12px;"><div xmlns="http://www.w3.org/1999/xhtml" style="display: table-cell; white-space: nowrap; line-height: 1.5;"><span class="edgeLabel"><p>many</p></span></div></foreignObject></g></g><g class="edgeTerminals" transform="translate(251.375, 227.5)"><g class="inner" transform="translate(-13, -8.25)"/><foreignObject width="26" height="16.5" style="width: 36px; height: 12px;"><div xmlns="http://www.w3.org/1999/xhtml" style="display: table-cell; white-space: nowrap; line-height: 1.5;"><span class="edgeLabel"><p>many</p></span></div></foreignObject></g><g class="edgeTerminals" transform="translate(120.25, 481.5)"><g class="inner" transform="translate(-13, -8.25)"/><foreignObject width="26" height="16.5" style="width: 36px; height: 12px;"><div xmlns="http://www.w3.org/1999/xhtml" style="display: table-cell; white-space: nowrap; line-height: 1.5;"><span class="edgeLabel"><p>many</p></span></div></foreignObject></g><g class="edgeTerminals" transform="translate(378.4398117769059, 467.72978897348827)"><g class="inner" transform="translate(-13, -8.25)"/><foreignObject width="26" height="16.5" style="width: 36px; height: 12px;"><div xmlns="http://www.w3.org/1999/xhtml" style="display: table-cell; white-space: nowrap; line-height: 1.5;"><span class="edgeLabel"><p>many</p></span></div></foreignObject></g><g class="edgeTerminals" transform="translate(382.5, 735.5)"><g class="inner" transform="translate(-3, -8.25)"/><foreignObject width="6" height="16.5" style="width: 9px; height: 12px;"><div xmlns="http://www.w3.org/1999/xhtml" style="display: table-cell; white-space: nowrap; line-height: 1.5;"><span class="edgeLabel"><p>1</p></span></div></foreignObject></g></g><g class="nodes"><g class="node default" id="my-svg-classId-Tenant-0" data-look="classic" transform="translate(241.375, 104)"><g class="basic label-container outer-path"><path d="M-93 -96 L93 -96 L93 96 L-93 96" stroke="none" stroke-width="0" fill="#ECECFF" style=""/><path d="M-93 -96 C-45.88965875590603 -96, 1.220682488187947 -96, 93 -96 M-93 -96 C-18.78446531738409 -96, 55.43106936523182 -96, 93 -96 M93 -96 C93 -41.06436221238381, 93 13.871275575232374, 93 96 M93 -96 C93 -34.15104010783476, 93 27.69791978433048, 93 96 M93 96 C26.6663013114228 96, -39.6673973771544 96, -93 96 M93 96 C31.168957824163762 96, -30.662084351672476 96, -93 96 M-93 96 C-93 53.8043306940028, -93 11.6086613880056, -93 -96 M-93 96 C-93 42.22230054480037, -93 -11.555398910399262, -93 -96" stroke="#9370DB" stroke-width="1.3" fill="none" stroke-dasharray="0 0" style=""/></g><g class="annotation-group text" transform="translate(0, -72)"/><g class="label-group text" transform="translate(-25, -72)"><g class="label" style="font-weight: bolder" transform="translate(0,-12)"><foreignObject width="50" height="24"><div xmlns="http://www.w3.org/1999/xhtml" style="display: table-cell; white-space: nowrap; line-height: 1.5; max-width: 90px; text-align: center;"><span class="nodeLabel markdown-node-label" style=""><p>Tenant</p></span></div></foreignObject></g></g><g class="members-group text" transform="translate(-81, -24)"><g class="label" style="" transform="translate(0,-12)"><foreignObject width="61" height="24"><div xmlns="http://www.w3.org/1999/xhtml" style="display: table-cell; white-space: nowrap; line-height: 1.5; max-width: 116px; text-align: center;"><span class="nodeLabel markdown-node-label" style=""><p>+UUID id</p></span></div></foreignObject></g><g class="label" style="" transform="translate(0,12)"><foreignObject width="92" height="24"><div xmlns="http://www.w3.org/1999/xhtml" style="display: table-cell; white-space: nowrap; line-height: 1.5; max-width: 134px; text-align: center;"><span class="nodeLabel markdown-node-label" style=""><p>+String name</p></span></div></foreignObject></g><g class="label" style="" transform="translate(0,36)"><foreignObject width="117" height="24"><div xmlns="http://www.w3.org/1999/xhtml" style="display: table-cell; white-space: nowrap; line-height: 1.5; max-width: 154px; text-align: center;"><span class="nodeLabel markdown-node-label" style=""><p>+String plan_tier</p></span></div></foreignObject></g><g class="label" style="" transform="translate(0,60)"><foreignObject width="137" height="24"><div xmlns="http://www.w3.org/1999/xhtml" style="display: table-cell; white-space: nowrap; line-height: 1.5; max-width: 171px; text-align: center;"><span class="nodeLabel markdown-node-label" style=""><p>+String auth_config</p></span></div></foreignObject></g></g><g class="methods-group text" transform="translate(-81, 96)"/><g class="divider" style=""><path d="M-93 -48 C-28.736466174260386 -47.99965449712997, 35.52706765147923 -47.99930899425994, 93 -47.999 M-93 -48 C-23.856116547234436 -47.99962825869112, 45.28776690553113 -47.99925651738223, 93 -47.999" stroke="#9370DB" stroke-width="1.3" fill="none" stroke-dasharray="0 0" style=""/></g><g class="divider" style=""><path d="M-93 72 C-25.679055068321162 72.00036194056415, 41.641889863357676 72.0007238811283, 93 72.001 M-93 72 C-50.78559928231523 72.00022695914365, -8.571198564630464 72.00045391828729, 93 72.001" stroke="#9370DB" stroke-width="1.3" fill="none" stroke-dasharray="0 0" style=""/></g></g><g class="node default" id="my-svg-classId-Site-1" data-look="classic" transform="translate(241.375, 346)"><g class="basic label-container outer-path"><path d="M-76 -96 L76 -96 L76 96 L-76 96" stroke="none" stroke-width="0" fill="#ECECFF" style=""/><path d="M-76 -96 C-15.317821578780666 -96, 45.36435684243867 -96, 76 -96 M-76 -96 C-44.0430175036674 -96, -12.086035007334807 -96, 76 -96 M76 -96 C76 -56.91261332049835, 76 -17.825226640996704, 76 96 M76 -96 C76 -53.94878386616875, 76 -11.897567732337507, 76 96 M76 96 C20.000090580556915 96, -35.99981883888617 96, -76 96 M76 96 C31.54114038572675 96, -12.917719228546503 96, -76 96 M-76 96 C-76 50.333183885709396, -76 4.666367771418791, -76 -96 M-76 96 C-76 30.077603322245167, -76 -35.844793355509665, -76 -96" stroke="#9370DB" stroke-width="1.3" fill="none" stroke-dasharray="0 0" style=""/></g><g class="annotation-group text" transform="translate(0, -72)"/><g class="label-group text" transform="translate(-14, -72)"><g class="label" style="font-weight: bolder" transform="translate(0,-12)"><foreignObject width="28" height="24"><div xmlns="http://www.w3.org/1999/xhtml" style="display: table-cell; white-space: nowrap; line-height: 1.5; max-width: 73px; text-align: center;"><span class="nodeLabel markdown-node-label" style=""><p>Site</p></span></div></foreignObject></g></g><g class="members-group text" transform="translate(-64, -24)"><g class="label" style="" transform="translate(0,-12)"><foreignObject width="61" height="24"><div xmlns="http://www.w3.org/1999/xhtml" style="display: table-cell; white-space: nowrap; line-height: 1.5; max-width: 116px; text-align: center;"><span class="nodeLabel markdown-node-label" style=""><p>+UUID id</p></span></div></foreignObject></g><g class="label" style="" transform="translate(0,12)"><foreignObject width="114" height="24"><div xmlns="http://www.w3.org/1999/xhtml" style="display: table-cell; white-space: nowrap; line-height: 1.5; max-width: 160px; text-align: center;"><span class="nodeLabel markdown-node-label" style=""><p>+UUID tenant_id</p></span></div></foreignObject></g><g class="label" style="" transform="translate(0,36)"><foreignObject width="106" height="24"><div xmlns="http://www.w3.org/1999/xhtml" style="display: table-cell; white-space: nowrap; line-height: 1.5; max-width: 146px; text-align: center;"><span class="nodeLabel markdown-node-label" style=""><p>+String domain</p></span></div></foreignObject></g><g class="label" style="" transform="translate(0,60)"><foreignObject width="94" height="24"><div xmlns="http://www.w3.org/1999/xhtml" style="display: table-cell; white-space: nowrap; line-height: 1.5; max-width: 136px; text-align: center;"><span class="nodeLabel markdown-node-label" style=""><p>+String status</p></span></div></foreignObject></g></g><g class="methods-group text" transform="translate(-64, 96)"/><g class="divider" style=""><path d="M-76 -48 C-23.489141981987196 -47.99965453382883, 29.02171603602561 -47.99930906765766, 76 -47.999 M-76 -48 C-32.707561426042766 -47.99971518132517, 10.584877147914469 -47.999430362650344, 76 -47.999" stroke="#9370DB" stroke-width="1.3" fill="none" stroke-dasharray="0 0" style=""/></g><g class="divider" style=""><path d="M-76 72 C-37.45653761416957 72.00025357541044, 1.0869247716608612 72.00050715082087, 76 72.001 M-76 72 C-25.910645508296717 72.00032953522692, 24.178708983406565 72.00065907045384, 76 72.001" stroke="#9370DB" stroke-width="1.3" fill="none" stroke-dasharray="0 0" style=""/></g></g><g class="node default" id="my-svg-classId-APIKey-2" data-look="classic" transform="translate(110.25, 600)"><g class="basic label-container outer-path"><path d="M-102.25 -96 L102.25 -96 L102.25 96 L-102.25 96" stroke="none" stroke-width="0" fill="#ECECFF" style=""/><path d="M-102.25 -96 C-29.083750901915124 -96, 44.08249819616975 -96, 102.25 -96 M-102.25 -96 C-21.380015703418195 -96, 59.48996859316361 -96, 102.25 -96 M102.25 -96 C102.25 -37.3985059704434, 102.25 21.202988059113196, 102.25 96 M102.25 -96 C102.25 -30.275245050871305, 102.25 35.44950989825739, 102.25 96 M102.25 96 C57.262765947811445 96, 12.27553189562289 96, -102.25 96 M102.25 96 C26.589326838365736 96, -49.07134632326853 96, -102.25 96 M-102.25 96 C-102.25 40.097516356804775, -102.25 -15.80496728639045, -102.25 -96 M-102.25 96 C-102.25 53.548579379869295, -102.25 11.09715875973859, -102.25 -96" stroke="#9370DB" stroke-width="1.3" fill="none" stroke-dasharray="0 0" style=""/></g><g class="annotation-group text" transform="translate(0, -72)"/><g class="label-group text" transform="translate(-25.5, -72)"><g class="label" style="font-weight: bolder" transform="translate(0,-12)"><foreignObject width="51" height="24"><div xmlns="http://www.w3.org/1999/xhtml" style="display: table-cell; white-space: nowrap; line-height: 1.5; max-width: 101px; text-align: center;"><span class="nodeLabel markdown-node-label" style=""><p>APIKey</p></span></div></foreignObject></g></g><g class="members-group text" transform="translate(-90.25, -24)"><g class="label" style="" transform="translate(0,-12)"><foreignObject width="61" height="24"><div xmlns="http://www.w3.org/1999/xhtml" style="display: table-cell; white-space: nowrap; line-height: 1.5; max-width: 116px; text-align: center;"><span class="nodeLabel markdown-node-label" style=""><p>+UUID id</p></span></div></foreignObject></g><g class="label" style="" transform="translate(0,12)"><foreignObject width="95" height="24"><div xmlns="http://www.w3.org/1999/xhtml" style="display: table-cell; white-space: nowrap; line-height: 1.5; max-width: 144px; text-align: center;"><span class="nodeLabel markdown-node-label" style=""><p>+UUID site_id</p></span></div></foreignObject></g><g class="label" style="" transform="translate(0,36)"><foreignObject width="86" height="24"><div xmlns="http://www.w3.org/1999/xhtml" style="display: table-cell; white-space: nowrap; line-height: 1.5; max-width: 129px; text-align: center;"><span class="nodeLabel markdown-node-label" style=""><p>+String hash</p></span></div></foreignObject></g><g class="label" style="" transform="translate(0,60)"><foreignObject width="155" height="24"><div xmlns="http://www.w3.org/1999/xhtml" style="display: table-cell; white-space: nowrap; line-height: 1.5; max-width: 187px; text-align: center;"><span class="nodeLabel markdown-node-label" style=""><p>+DateTime expires_at</p></span></div></foreignObject></g></g><g class="methods-group text" transform="translate(-90.25, 96)"/><g class="divider" style=""><path d="M-102.25 -48 C-32.073135883890544 -47.99965683685029, 38.10372823221891 -47.99931367370058, 102.25 -47.999 M-102.25 -48 C-44.58631570320733 -47.99971802599366, 13.077368593585334 -47.99943605198732, 102.25 -47.999" stroke="#9370DB" stroke-width="1.3" fill="none" stroke-dasharray="0 0" style=""/></g><g class="divider" style=""><path d="M-102.25 72 C-35.40905173315643 72.00032685060278, 31.431896533687137 72.00065370120555, 102.25 72.001 M-102.25 72 C-50.47496297044478 72.00025317866518, 1.3000740591104432 72.00050635733037, 102.25 72.001" stroke="#9370DB" stroke-width="1.3" fill="none" stroke-dasharray="0 0" style=""/></g></g><g class="node default" id="my-svg-classId-SecurityEvent-3" data-look="classic" transform="translate(372.5, 600)"><g class="basic label-container outer-path"><path d="M-110 -108 L110 -108 L110 108 L-110 108" stroke="none" stroke-width="0" fill="#ECECFF" style=""/><path d="M-110 -108 C-62.58297193825134 -108, -15.16594387650268 -108, 110 -108 M-110 -108 C-62.239325672731695 -108, -14.47865134546339 -108, 110 -108 M110 -108 C110 -59.029331990412636, 110 -10.058663980825273, 110 108 M110 -108 C110 -28.982420006040314, 110 50.03515998791937, 110 108 M110 108 C53.19547014466157 108, -3.60905971067686 108, -110 108 M110 108 C41.23956565810637 108, -27.520868683787256 108, -110 108 M-110 108 C-110 35.30877768811287, -110 -37.38244462377426, -110 -108 M-110 108 C-110 37.2683783629426, -110 -33.4632432741148, -110 -108" stroke="#9370DB" stroke-width="1.3" fill="none" stroke-dasharray="0 0" style=""/></g><g class="annotation-group text" transform="translate(0, -84)"/><g class="label-group text" transform="translate(-51, -84)"><g class="label" style="font-weight: bolder" transform="translate(0,-12)"><foreignObject width="102" height="24"><div xmlns="http://www.w3.org/1999/xhtml" style="display: table-cell; white-space: nowrap; line-height: 1.5; max-width: 133px; text-align: center;"><span class="nodeLabel markdown-node-label" style=""><p>SecurityEvent</p></span></div></foreignObject></g></g><g class="members-group text" transform="translate(-98, -36)"><g class="label" style="" transform="translate(0,-12)"><foreignObject width="61" height="24"><div xmlns="http://www.w3.org/1999/xhtml" style="display: table-cell; white-space: nowrap; line-height: 1.5; max-width: 116px; text-align: center;"><span class="nodeLabel markdown-node-label" style=""><p>+UUID id</p></span></div></foreignObject></g><g class="label" style="" transform="translate(0,12)"><foreignObject width="95" height="24"><div xmlns="http://www.w3.org/1999/xhtml" style="display: table-cell; white-space: nowrap; line-height: 1.5; max-width: 144px; text-align: center;"><span class="nodeLabel markdown-node-label" style=""><p>+UUID site_id</p></span></div></foreignObject></g><g class="label" style="" transform="translate(0,36)"><foreignObject width="129" height="24"><div xmlns="http://www.w3.org/1999/xhtml" style="display: table-cell; white-space: nowrap; line-height: 1.5; max-width: 168px; text-align: center;"><span class="nodeLabel markdown-node-label" style=""><p>+String ip_address</p></span></div></foreignObject></g><g class="label" style="" transform="translate(0,60)"><foreignObject width="121" height="24"><div xmlns="http://www.w3.org/1999/xhtml" style="display: table-cell; white-space: nowrap; line-height: 1.5; max-width: 158px; text-align: center;"><span class="nodeLabel markdown-node-label" style=""><p>+Int threat_score</p></span></div></foreignObject></g><g class="label" style="" transform="translate(0,84)"><foreignObject width="145" height="24"><div xmlns="http://www.w3.org/1999/xhtml" style="display: table-cell; white-space: nowrap; line-height: 1.5; max-width: 179px; text-align: center;"><span class="nodeLabel markdown-node-label" style=""><p>+String action_taken</p></span></div></foreignObject></g></g><g class="methods-group text" transform="translate(-98, 108)"/><g class="divider" style=""><path d="M-110 -60 C-29.698613901292248 -59.99963499369955, 50.602772197415504 -59.9992699873991, 110 -59.999 M-110 -60 C-23.00566244997961 -59.999604571192954, 63.98867510004078 -59.99920914238591, 110 -59.999" stroke="#9370DB" stroke-width="1.3" fill="none" stroke-dasharray="0 0" style=""/></g><g class="divider" style=""><path d="M-110 84 C-39.54326058361495 84.00032025790644, 30.913478832770096 84.00064051581288, 110 84.001 M-110 84 C-31.829062162074138 84.00035532244472, 46.341875675851725 84.00071064488944, 110 84.001" stroke="#9370DB" stroke-width="1.3" fill="none" stroke-dasharray="0 0" style=""/></g></g><g class="node default" id="my-svg-classId-AttackerProfile-4" data-look="classic" transform="translate(372.5, 854)"><g class="basic label-container outer-path"><path d="M-124 -96 L124 -96 L124 96 L-124 96" stroke="none" stroke-width="0" fill="#ECECFF" style=""/><path d="M-124 -96 C-55.10507365088799 -96, 13.789852698224024 -96, 124 -96 M-124 -96 C-58.823088971517336 -96, 6.353822056965328 -96, 124 -96 M124 -96 C124 -52.17139398454351, 124 -8.342787969087027, 124 96 M124 -96 C124 -44.85930748611383, 124 6.281385027772345, 124 96 M124 96 C37.66696387994655 96, -48.6660722401069 96, -124 96 M124 96 C61.372869902641966 96, -1.2542601947160676 96, -124 96 M-124 96 C-124 35.89877415718411, -124 -24.202451685631786, -124 -96 M-124 96 C-124 26.437293450349287, -124 -43.125413099301426, -124 -96" stroke="#9370DB" stroke-width="1.3" fill="none" stroke-dasharray="0 0" style=""/></g><g class="annotation-group text" transform="translate(0, -72)"/><g class="label-group text" transform="translate(-58, -72)"><g class="label" style="font-weight: bolder" transform="translate(0,-12)"><foreignObject width="116" height="24"><div xmlns="http://www.w3.org/1999/xhtml" style="display: table-cell; white-space: nowrap; line-height: 1.5; max-width: 142px; text-align: center;"><span class="nodeLabel markdown-node-label" style=""><p>AttackerProfile</p></span></div></foreignObject></g></g><g class="members-group text" transform="translate(-112, -24)"><g class="label" style="" transform="translate(0,-12)"><foreignObject width="129" height="24"><div xmlns="http://www.w3.org/1999/xhtml" style="display: table-cell; white-space: nowrap; line-height: 1.5; max-width: 168px; text-align: center;"><span class="nodeLabel markdown-node-label" style=""><p>+String ip_address</p></span></div></foreignObject></g><g class="label" style="" transform="translate(0,12)"><foreignObject width="166" height="24"><div xmlns="http://www.w3.org/1999/xhtml" style="display: table-cell; white-space: nowrap; line-height: 1.5; max-width: 193px; text-align: center;"><span class="nodeLabel markdown-node-label" style=""><p>+String tool_fingerprint</p></span></div></foreignObject></g><g class="label" style="" transform="translate(0,36)"><foreignObject width="137" height="24"><div xmlns="http://www.w3.org/1999/xhtml" style="display: table-cell; white-space: nowrap; line-height: 1.5; max-width: 171px; text-align: center;"><span class="nodeLabel markdown-node-label" style=""><p>+String geolocation</p></span></div></foreignObject></g><g class="label" style="" transform="translate(0,60)"><foreignObject width="145" height="24"><div xmlns="http://www.w3.org/1999/xhtml" style="display: table-cell; white-space: nowrap; line-height: 1.5; max-width: 180px; text-align: center;"><span class="nodeLabel markdown-node-label" style=""><p>+DateTime last_seen</p></span></div></foreignObject></g></g><g class="methods-group text" transform="translate(-112, 96)"/><g class="divider" style=""><path d="M-124 -48 C-44.17800434590612 -47.9996781371143, 35.643991308187765 -47.999356274228596, 124 -47.999 M-124 -48 C-70.48277807573344 -47.999784204750306, -16.96555615146687 -47.99956840950061, 124 -47.999" stroke="#9370DB" stroke-width="1.3" fill="none" stroke-dasharray="0 0" style=""/></g><g class="divider" style=""><path d="M-124 72 C-54.42977729264808 72.00028052509157, 15.140445414703834 72.00056105018312, 124 72.001 M-124 72 C-43.31455083296116 72.00032534455309, 37.37089833407768 72.0006506891062, 124 72.001" stroke="#9370DB" stroke-width="1.3" fill="none" stroke-dasharray="0 0" style=""/></g></g></g></g></g><defs><filter id="my-svg-drop-shadow" height="130%" width="130%"><feDropShadow dx="4" dy="4" stdDeviation="0" flood-opacity="0.06" flood-color="#000000"/></filter></defs><defs><filter id="my-svg-drop-shadow-small" height="150%" width="150%"><feDropShadow dx="2" dy="2" stdDeviation="0" flood-opacity="0.06" flood-color="#000000"/></filter></defs></svg>